<svg id="Layer_1" data-name="Layer 1" xmlns="http://www.w3.org/2000/svg" viewBox="0 0 190.61 183.33"><defs><style>.cls-1{fill:#0d71ba;}.cls-2{fill:#323a45;}</style></defs><title>api</title><path class="cls-1" d="M53.31,0H64.23C68,1.13,68.52,1.64,68.56,4.34c0.09,5.74,2.72,10,8,12.16s10,0.87,14.12-2.85c2.15-1.93,3.55-2.08,5.68-.07,2.75,2.58,5.42,5.27,8,8,1.9,2.06,1.76,3.48-.13,5.5-3.71,4-4.86,8.61-3,13.69s5.8,7.95,11.19,8.39c2.83,0.23,4.69,1.17,5.2,4.1V64.23c-1.13,3.67-1.69,4.3-4.13,4.32-5.83,0-10.12,2.68-12.38,8S100,86.62,104,90.76c1.88,2,1.95,3.47,0,5.52-2.42,2.6-4.92,5.15-7.54,7.55-2.87,2.63-3.68,2.48-6.65,0-4.05-3.35-8.66-4.46-13.63-2.48a12.32,12.32,0,0,0-8,10.79c-0.44,4.12-.35,4.16-4,5.39H53.31c-4.09-1.26-4.08-1.26-4.35-5.65a8.6,8.6,0,0,0-.17-1.29c-1.07-5-4-8.45-8.78-9.95s-9.33-.24-13.1,3.23c-2.14,2-3.56,2.08-5.68.09-2.7-2.54-5.32-5.16-7.83-7.88-2.08-2.26-1.93-3.54.14-5.83,3.64-4,4.71-8.68,2.78-13.75A12.13,12.13,0,0,0,5.22,68.3C2.36,68.1.57,67.1,0,64.23V53.31C1.19,49.47,1.58,49.12,4.32,49c5.59-.32,10-2.69,12.21-8s1-10.08-3-14.21c-1.83-1.91-1.93-3.41-.13-5.35,2.46-2.66,5-5.25,7.68-7.7,2.84-2.61,3.66-2.46,6.65,0,4.05,3.35,8.66,4.44,13.63,2.46,4.8-1.92,7.43-5.7,8-10.79C49.81,1.27,49.74,1.19,53.31,0Zm25,58.93a19.52,19.52,0,1,0-19.52,19.5A19.49,19.49,0,0,0,78.34,58.93Z"/><path class="cls-2" d="M143,64.06h8.09c2.78,0.84,3.17,1.21,3.2,3.22,0.07,4.26,2,7.39,5.9,9s7.39,0.64,10.46-2.11c1.59-1.43,2.63-1.54,4.21-.05,2,1.91,4,3.9,5.91,6,1.41,1.53,1.31,2.58-.09,4.08a9.37,9.37,0,0,0-2.24,10.15,9,9,0,0,0,8.29,6.22c2.09,0.17,3.48.87,3.86,3v8.09c-0.84,2.72-1.25,3.18-3.06,3.2-4.32,0-7.5,2-9.17,5.91s-0.74,7.47,2.18,10.54c1.39,1.47,1.44,2.57,0,4.09-1.8,1.93-3.64,3.81-5.58,5.59-2.12,1.95-2.73,1.84-4.93,0-3-2.49-6.41-3.3-10.1-1.83a9.13,9.13,0,0,0-5.93,8c-0.33,3.05-.26,3.08-2.93,4H143c-3-.94-3-0.94-3.23-4.19a6.38,6.38,0,0,0-.13-1,9.25,9.25,0,0,0-6.51-7.37,9.51,9.51,0,0,0-9.71,2.39c-1.58,1.45-2.64,1.54-4.21.06-2-1.88-3.94-3.82-5.8-5.84-1.54-1.67-1.43-2.62.1-4.32a9.35,9.35,0,0,0,2.06-10.18,9,9,0,0,0-8.21-6.08c-2.12-.15-3.44-0.89-3.87-3v-8.09c0.88-2.84,1.17-3.1,3.2-3.22,4.14-.24,7.42-2,9-5.92s0.73-7.47-2.2-10.53c-1.35-1.42-1.43-2.53-.1-4,1.82-2,3.71-3.89,5.69-5.71s2.71-1.82,4.93,0c3,2.48,6.41,3.29,10.1,1.82a9.15,9.15,0,0,0,5.92-8C140.43,65,140.38,64.94,143,64.06Zm18.55,43.66a14.46,14.46,0,1,0-14.46,14.45A14.44,14.44,0,0,0,161.57,107.72Z"/><path class="cls-2" d="M77.3,115h6.35c2.18,0.66,2.49,1,2.51,2.53a7.22,7.22,0,0,0,4.63,7.07c3,1.26,5.8.5,8.21-1.65,1.25-1.12,2.06-1.21,3.3,0,1.6,1.5,3.15,3.06,4.63,4.67,1.1,1.2,1,2-.07,3.2a7.35,7.35,0,0,0-1.75,8,7.1,7.1,0,0,0,6.5,4.88c1.64,0.13,2.73.68,3,2.38v6.35c-0.66,2.13-1,2.5-2.4,2.51a7.31,7.31,0,0,0-7.2,4.64c-1.3,3.06-.58,5.86,1.71,8.27,1.09,1.15,1.13,2,0,3.21-1.41,1.51-2.86,3-4.38,4.39s-2.14,1.44-3.87,0a7.45,7.45,0,0,0-7.92-1.44,7.16,7.16,0,0,0-4.65,6.27c-0.26,2.39-.2,2.42-2.3,3.13H77.3c-2.38-.73-2.37-0.73-2.53-3.29a5,5,0,0,0-.1-0.75,7.26,7.26,0,0,0-5.11-5.78,7.46,7.46,0,0,0-7.62,1.88c-1.24,1.14-2.07,1.21-3.3,0-1.57-1.47-3.09-3-4.55-4.58-1.21-1.31-1.12-2.06.08-3.39a7.34,7.34,0,0,0,1.62-8,7,7,0,0,0-6.44-4.77c-1.66-.12-2.7-0.7-3-2.36V146c0.69-2.23.92-2.43,2.51-2.53,3.25-.19,5.82-1.57,7.1-4.65a7.23,7.23,0,0,0-1.73-8.26c-1.06-1.11-1.12-2-.08-3.11,1.43-1.55,2.91-3.05,4.46-4.48s2.13-1.43,3.86,0a7.46,7.46,0,0,0,7.92,1.43A7.18,7.18,0,0,0,75,118.13C75.27,115.74,75.23,115.69,77.3,115Zm14.55,34.26A11.35,11.35,0,1,0,80.5,160.6,11.33,11.33,0,0,0,91.85,149.26Z"/></svg>