<svg id="Layer_1" data-name="Layer 1" xmlns="http://www.w3.org/2000/svg" viewBox="0 0 190.61 183.33"><defs><style>.cls-1{fill:#bcbec0;}.cls-2,.cls-6{fill:#fff;}.cls-2{stroke:#d3d3d3;stroke-miterlimit:10;stroke-width:0.5px;}.cls-3{fill:#0d71ba;}.cls-4{fill:#f9d804;}.cls-5{fill:#d1d3d4;}.cls-7{fill:#4c4c4d;}.cls-8{fill:#7a9cd1;}.cls-9{fill:#4b515e;}.cls-10{fill:#778193;}</style></defs><title>create-your-own</title><rect class="cls-1" x="4.75" y="85.64" width="185.86" height="49.55"/><rect class="cls-2" x="0.5" y="82.46" width="185.86" height="49.55"/><rect class="cls-3" x="9.7" y="88.12" width="8.85" height="36.81"/><rect class="cls-4" x="22.09" y="97.08" width="8.85" height="27.85"/><rect class="cls-5" x="50.74" y="97.08" width="120.85" height="21.51"/><path class="cls-6" d="M164.93,164.82h-24.8l-0.07-1.14c-0.09-1.62-1.22-4.46-2.12-6.74-0.43-1.1-.85-2.13-1.13-3-0.53-1.58-3.37-5.49-7.61-10.45-2.49-2.91-3.31-6.76-2.37-11.14a6.69,6.69,0,0,1,5.41-5,19.34,19.34,0,0,1,4.82.34v-4.12a4.91,4.91,0,0,1,5.13-4.37,8.83,8.83,0,0,1,3.38.66,5.4,5.4,0,0,1,1.29-2.32,4.72,4.72,0,0,1,3.47-1.36,5.26,5.26,0,0,1,4.92,3.37,6.33,6.33,0,0,1,3.07-.66,5.57,5.57,0,0,1,5.4,4.42l0,0.13v1.47a6.43,6.43,0,0,1,2.86-.58,4.82,4.82,0,0,1,3.63,1.39,5.27,5.27,0,0,1,1.34,3.6V143a23.56,23.56,0,0,1-2.87,9.64c-1,1.82-2.2,8.66-2.57,11.14l-0.15,1h-1Z"/><path class="cls-5" d="M165,164.54H142.42l-0.07.25c-0.09-1.62-1.22-4.46-2.12-6.74-0.43-1.1-.85-2.13-1.13-3-0.53-1.58-3.37-5.49-7.61-10.45a13.62,13.62,0,0,1-3.2-11.53c0.54-2.51,3.74-4.32,6.23-4.62a19.34,19.34,0,0,1,4.82.34v-4.12c0-3.37,1.83-4.37,5.13-4.37a6.23,6.23,0,0,1,2.77.36c0.22-.76,1.21-1.31,1.9-2,0.87-.89,3.47-1.36,3.47-1.36a9.38,9.38,0,0,1,2.39,3c0.7-.38,5.6-0.28,5.6-0.28l2.41,5.33c0.72-.35,5.29.57,6.18,1.49a5.27,5.27,0,0,1,1.34,3.6l0.09,13.7a23.56,23.56,0,0,1-2.87,9.64c-1,1.82-1.23,7.28-1.59,9.76l-0.15,1h-1Zm-26.48-34.29a18.89,18.89,0,0,0-4.34-.51s-1.79-1-3.5,4.93c-0.72,2.47,1.52,5.43,4,8.36a40.72,40.72,0,0,1,6.72,11.26c0.27,0.8.66,1.8,1.09,2.87a40.07,40.07,0,0,1,2.14,6.36h21.58c0.41-2.57,1.51-8.83,2.7-10.94a21.48,21.48,0,0,0,2.56-8.45V130.35a2.93,2.93,0,0,0-.68-1.88c-0.42-.43-1-2.15-1.88-2.15-2.94,0-2.86,1.64-2.87,1.71v3.22h-2.41l-1.21-6.43s-1.46-4.37-2.48-4.21c-1.22.19-.78,0.19-1.2,0.56a1.71,1.71,0,0,0-.55,1.49v7.24h-2.41v-6.62a6.06,6.06,0,0,0-.61-2c-0.58-1.1-2.07-.6-2.56-1.63a1,1,0,0,0-1.75-.52,4.09,4.09,0,0,0-.88,2.51v8.22h-2.41v-5.45c0-.66-0.62-1.73-2.64-1.73-2.77,0-3.18,1-3.18,2v15.78h-2.41Z"/><path class="cls-7" d="M165,164.82h-24.8l-0.07-1.14c-0.09-1.62-1.22-4.46-2.12-6.74-0.43-1.1-.85-2.13-1.13-3-0.53-1.58-3.37-5.49-7.61-10.45-2.49-2.91-3.31-6.76-2.37-11.14a6.69,6.69,0,0,1,5.41-5,19.34,19.34,0,0,1,4.82.34v-4.12a4.91,4.91,0,0,1,5.13-4.37,8.83,8.83,0,0,1,3.38.66,5.4,5.4,0,0,1,1.29-2.32,4.72,4.72,0,0,1,3.47-1.36,5.26,5.26,0,0,1,4.92,3.37,6.33,6.33,0,0,1,3.07-.66,5.57,5.57,0,0,1,5.4,4.42l0,0.13v1.47a6.43,6.43,0,0,1,2.86-.58,4.82,4.82,0,0,1,3.63,1.39,5.27,5.27,0,0,1,1.34,3.6V143a23.56,23.56,0,0,1-2.87,9.64c-1,1.82-2.2,8.66-2.57,11.14l-0.15,1h-1Zm-27.89-34.69a18.71,18.71,0,0,0-4.53-.39,4.27,4.27,0,0,0-3.34,3.13c-0.54,2.52-.66,6.13,1.85,9.06,3.23,3.78,7.25,8.8,8.07,11.26,0.27,0.8.66,1.8,1.09,2.87a40.07,40.07,0,0,1,2.14,6.36h21.58c0.41-2.57,1.51-8.83,2.7-10.94a21.48,21.48,0,0,0,2.56-8.45V129.24a2.93,2.93,0,0,0-.68-1.88,2.5,2.5,0,0,0-1.88-.64c-2.94,0-2.86,1.65-2.87,1.72v2.88h-2.41v-7.61a2.21,2.21,0,0,0-2.51-2.41c-3.32,0-2.92,2.15-2.92,2.16v6.43h-2.41v-7.72a6.06,6.06,0,0,0-.61-2,2.74,2.74,0,0,0-2.56-1.63,2.31,2.31,0,0,0-1.75.63,4.09,4.09,0,0,0-.88,2.51v8.17h-2.41v-6.56c0-.66-0.62-1.73-2.64-1.73-2.77,0-3.18,1-3.18,2v16.88h-2.41V130.13Z"/><rect class="cls-5" x="147.71" y="138.82" width="2.65" height="11.41"/><rect class="cls-5" x="155.59" y="138.82" width="2.65" height="11.41"/><rect class="cls-8" x="34.47" y="106.52" width="8.85" height="18.4"/><rect class="cls-9" x="0.75" y="26.9" width="151.93" height="40.5"/><rect class="cls-10" x="4.75" y="32.84" width="6.88" height="28.62"/><rect class="cls-10" x="14.38" y="39.81" width="6.88" height="21.66"/><rect class="cls-10" x="36.67" y="39.81" width="93.99" height="16.73"/><rect class="cls-10" x="24.02" y="47.15" width="6.88" height="14.31"/></svg>