<?xml version="1.0" encoding="utf-8"?>
<!-- Generator: Adobe Illustrator 19.2.1, SVG Export Plug-In . SVG Version: 6.00 Build 0)  -->
<svg version="1.1" id="Layer_1" xmlns="http://www.w3.org/2000/svg" xmlns:xlink="http://www.w3.org/1999/xlink" x="0px" y="0px"
	 viewBox="0 0 190.6 183.3" style="enable-background:new 0 0 190.6 183.3;" xml:space="preserve">
<style type="text/css">
	.st0{fill:#787878;}
	.st1{fill:#BABABA;}
	.st2{fill:#383838;}
	.st3{fill:#FFFFFF;}
	.st4{fill:#E5E5E5;}
	.st5{fill:#323A45;}
	.st6{fill:#E15526;}
	.st7{fill:#F9D804;}
	.st8{fill:#6ABD45;}
	.st9{fill:#BCBEC0;}
	.st10{fill:#D1D3D4;}
	.st11{fill:#0D71BA;}
</style>
<polygon class="st0" points="116,149.2 80.5,149.2 84.5,132.9 112,132.9 "/>
<path class="st1" d="M119.2,152h-42c-1.1,0-2-0.9-2-2v-1.7c0-1.1,0.9-2,2-2h42c1.1,0,2,0.9,2,2v1.7C121.2,151.1,120.3,152,119.2,152
	z"/>
<path class="st2" d="M183.5,132.9H8.5c-1.7,0-3-1.4-3-3V32.4c0-1.7,1.3-3,3-3h175c1.6,0,3,1.4,3,3v97.4
	C186.5,131.5,185.1,132.9,183.5,132.9z"/>
<rect x="10.9" y="35" class="st3" width="170.1" height="88.5"/>
<g>
	<rect x="26" y="45" class="st4" width="140.5" height="75.5"/>
	<rect x="26" y="37.8" class="st5" width="140.5" height="8.1"/>
	<circle class="st6" cx="30.5" cy="41.8" r="2.2"/>
	<circle class="st7" cx="36.9" cy="41.8" r="2.2"/>
	<circle class="st8" cx="43" cy="41.8" r="2.2"/>
</g>
<g>
	<rect x="33.1" y="55.5" class="st9" width="126.6" height="53.4"/>
	<rect x="33.1" y="54.4" class="st3" width="126.6" height="53.4"/>
	<rect x="37.5" y="57.5" class="st10" width="27.3" height="4.1"/>
	<g>
		<rect x="39.8" y="97.8" class="st11" width="5" height="3.4"/>
		<rect x="46.2" y="98.7" class="st7" width="5" height="2.5"/>
	</g>
	<g>
		<rect x="55.6" y="95" class="st11" width="5" height="6.2"/>
		<rect x="62.1" y="96.5" class="st7" width="5" height="4.7"/>
	</g>
	<g>
		<rect x="72" y="92.7" class="st11" width="5" height="8.5"/>
		<rect x="78.5" y="94.8" class="st7" width="5" height="6.4"/>
	</g>
	<g>
		<rect x="88.4" y="90" class="st11" width="5" height="11.2"/>
		<rect x="94.8" y="94.8" class="st7" width="5" height="6.4"/>
	</g>
	<g>
		<rect x="140.3" y="64.6" class="st11" width="5" height="36.6"/>
		<rect x="146.8" y="80.3" class="st7" width="5" height="21"/>
	</g>
	<g>
		<rect x="104.3" y="85.4" class="st11" width="5" height="15.9"/>
		<rect x="110.7" y="92.1" class="st7" width="5" height="9.1"/>
	</g>
	<g>
		<rect x="122.3" y="78.5" class="st11" width="5" height="22.7"/>
		<rect x="128.7" y="88.2" class="st7" width="5" height="13"/>
	</g>
</g>
</svg>
