<svg id="Layer_1" data-name="Layer 1" xmlns="http://www.w3.org/2000/svg" viewBox="0 0 190.61 183.33"><defs><style>.cls-1{fill:#e5e5e5;}.cls-2{fill:#323a45;}.cls-3{fill:#e15526;}.cls-4{fill:#f9d804;}.cls-5{fill:#6abd45;}.cls-6{fill:#fff;}.cls-7{fill:#0d71ba;}.cls-8{fill:#ccc;}</style></defs><title>topics-01</title><rect class="cls-1" y="9.75" width="190.61" height="150.85"/><rect class="cls-2" width="190.61" height="11"/><circle class="cls-3" cx="6.08" cy="5.5" r="2.92"/><circle class="cls-4" cx="14.75" cy="5.5" r="2.92"/><circle class="cls-5" cx="23.08" cy="5.5" r="2.92"/><rect class="cls-6" x="9" y="28.5" width="172" height="27"/><rect class="cls-7" x="157.99" y="28.5" width="23.01" height="27"/><rect class="cls-6" x="9" y="60.05" width="172" height="27"/><rect class="cls-2" x="164.74" y="60.05" width="16.26" height="27"/><rect class="cls-6" x="9" y="91.67" width="172" height="27"/><rect class="cls-2" x="164.74" y="91.67" width="16.26" height="27"/><rect class="cls-8" x="17.42" y="34.75" width="96.2" height="7.5"/><rect class="cls-8" x="17.42" y="66.05" width="111.92" height="7.5"/><rect class="cls-8" x="14.75" y="97.29" width="87.89" height="7.5"/><rect class="cls-6" x="9" y="124.36" width="172" height="27"/><rect class="cls-2" x="164.74" y="124.36" width="16.26" height="27"/><rect class="cls-8" x="14.75" y="129.99" width="98.87" height="7.5"/></svg>
